# xmcd
#
# Track frame offsets:
#	150
#	14248
#	29155
#	46028
#	64763
#	80355
#	120610
#	141728
#	162075
#	177393
#	192125
#	215315
#	232443
#	244963
#	266390
#
# Disc length: 3797 seconds
#
# Revision: 1
# Processed by: cddbd v1.5.1PL0 Copyright (c) Steve Scherf et al.
# Submitted via: CDex 1.50Beta5
#
DISCID=e10ed30f
DTITLE=さまざまなアーティスト - DISC7:RING MY BELL Disc 7
DYEAR=1900
DGENRE=Pop
TTITLE0=アニタ・ワード/RING MY BELL
TTITLE1=M/POP MUZIK
TTITLE2=ペニー・マクレーン/LADY BUMP
TTITLE3=”D”トレイン/YOU'RE THE ONE FOR ME
TTITLE4=アラベスク/HELLO MR.MONKEY
TTITLE5=シャラマー/UPTOWN FESTIVAL
TTITLE6=ラブ・マシーン/DESPERATELY
TTITLE7=ジンギスカン/MOSKAU
TTITLE8=ヴァン・マッコイ/DISCO KID
TTITLE9=スタイリスティック/CAN'T GIVE YOU ANYTHING (BUT MY LOVE)
TTITLE10=ウイススパーズ/ROCK STEADY
TTITLE11=ジンギスカン/HADSCHI HALEF OMAR
TTITLE12=タヴァレス/MORE THAN A WOMAN
TTITLE13=コンティーニ/CHA CHA CHA
TTITLE14=プロコル・ハルム/A WHITER SHADE OF PALE
EXTD=
EXTT0=
EXTT1=
EXTT2=
EXTT3=
EXTT4=
EXTT5=
EXTT6=
EXTT7=
EXTT8=
EXTT9=
EXTT10=
EXTT11=
EXTT12=
EXTT13=
EXTT14=
PLAYORDER=
